<svg id="Layer_1" viewBox="0 0 512 512" xmlns="http://www.w3.org/2000/svg" data-name="Layer 1"><path d="m390.252 272.239c26.8 0 48.524 21.457 48.524 47.928s-21.725 47.933-48.524 47.933-48.523-21.458-48.523-47.928 21.725-47.933 48.523-47.933zm-195.815 125.467a69.309 69.309 0 0 0 -31.095-29.987 63.949 63.949 0 0 1 -83.191 0 68.767 68.767 0 0 0 -38.978 61.8v34.612a4.011 4.011 0 0 0 4 4h115.253v-3.243a83.547 83.547 0 0 1 34.011-67.182zm-72.689-29.606c26.8 0 48.523-21.458 48.523-47.928s-21.725-47.928-48.523-47.928-48.524 21.456-48.524 47.923 21.725 47.933 48.524 47.933zm-1.229-208.1v-32.03a8.319 8.319 0 0 1 8.295-8.3h15.106a22.119 22.119 0 0 0 15.641-37.76l-10.682-10.677a8.318 8.318 0 0 1 0-11.73l22.643-22.643a8.318 8.318 0 0 1 11.73 0l10.683 10.682a22.119 22.119 0 0 0 37.765-15.642v-15.1a8.318 8.318 0 0 1 8.294-8.3h32.022a8.319 8.319 0 0 1 8.295 8.3v15.1a22.119 22.119 0 0 0 37.76 15.641l10.677-10.681a8.32 8.32 0 0 1 11.731 0l22.642 22.64a8.318 8.318 0 0 1 0 11.73l-10.682 10.685a22.12 22.12 0 0 0 15.641 37.76h15.107a8.319 8.319 0 0 1 8.294 8.3v32.022a8.319 8.319 0 0 1 -8.294 8.3h-15.107a22.119 22.119 0 0 0 -15.641 37.76l10.682 10.682a8.318 8.318 0 0 1 0 11.73l-22.642 22.631a8.32 8.32 0 0 1 -11.731 0l-10.682-10.68a22.119 22.119 0 0 0 -37.76 15.641v15.106a8.32 8.32 0 0 1 -8.295 8.3h-32.022a8.319 8.319 0 0 1 -8.294-8.3v-15.106a22.119 22.119 0 0 0 -37.76-15.641l-10.683 10.68a8.318 8.318 0 0 1 -11.73 0l-22.643-22.643a8.318 8.318 0 0 1 0-11.73l10.682-10.682a22.119 22.119 0 0 0 -15.64-37.76h-15.107a8.319 8.319 0 0 1 -8.295-8.293zm68.581-16.019a66.9 66.9 0 1 0 66.9-66.9 66.9 66.9 0 0 0 -66.9 66.9zm242.749 223.737a63.949 63.949 0 0 1 -83.191 0 69.3 69.3 0 0 0 -31.1 29.987 83.547 83.547 0 0 1 34.011 67.182v3.243h115.258a4.011 4.011 0 0 0 4-4v-34.611a68.767 68.767 0 0 0 -38.978-61.801zm-175.849-60.111c-26.8 0-48.523 21.458-48.523 47.929s21.723 47.928 48.523 47.928 48.523-21.458 48.523-47.928-21.723-47.929-48.523-47.929zm41.6 95.479a63.946 63.946 0 0 1 -83.192 0 68.769 68.769 0 0 0 -38.978 61.8v34.614a4.011 4.011 0 0 0 4 4h153.144a4.011 4.011 0 0 0 4-4v-34.612a68.77 68.77 0 0 0 -38.974-61.802z"/></svg>