<svg id="Layer_1" enable-background="new 0 0 512 512" height="512" viewBox="0 0 512 512" width="512" xmlns="http://www.w3.org/2000/svg"><path clip-rule="evenodd" d="m385.761 218.203h97.673c4.511 0 7.821-4.138 6.829-8.539-7.587-33.68-37.681-58.839-73.653-58.839-20.314 0-38.75 8.026-52.32 21.076 11.124 12.744 18.799 28.638 21.471 46.302zm-319.494 63.286 74.598 131.81c3.607 6.373 1.344 14.539-5.03 18.146l-25.374 14.361c-6.373 3.607-14.539 1.344-18.146-5.03l-74.598-131.81c-3.607-6.373-1.344-14.539 5.03-18.146l25.374-14.36c6.373-3.607 14.539-1.344 18.146 5.029zm22.701 7.627 52.653 93.034 11.249-6.494 119.039 31.897c17.123 4.589 33.639 2.421 48.734-6.871l164.117-101.057c23.373-14.39 13.048-77.376-57.25-36.435l-90.435 52.674c-4.55 2.65-9.181 4.601-13.918 5.905-7.508 11.55-23.417 16.951-36.545 13.528-19.513-5.16-38.997-10.428-58.494-15.651-4.263-1.139-6.795-5.518-5.656-9.781s5.518-6.795 9.781-5.656c19.374 5.19 38.729 10.453 58.119 15.582 12.715 1.792 21.741-4.432 25.106-16.994 3.638-13.576-4.699-26.966-18.071-31.302-36.026-6.497-71.351-21.562-92.985-28.577-19.403-6.294-37.354.958-55.007 11.185zm-41.298 9.497c-4.951.724-8.377 5.324-7.653 10.274.724 4.951 5.324 8.377 10.275 7.654 4.951-.724 8.377-5.324 7.653-10.275-.724-4.95-5.324-8.377-10.275-7.653zm247.633-228.453c21.083 0 38.174 17.091 38.174 38.174s-17.091 38.174-38.174 38.174-38.174-17.091-38.174-38.174c.001-21.083 17.092-38.174 38.174-38.174zm-66.824 153.725c-4.51 0-7.821-4.138-6.829-8.539 7.587-33.68 37.681-58.839 73.653-58.839s66.066 25.159 73.653 58.839c.991 4.4-2.319 8.538-6.829 8.538zm-54.483-159.408c21.083 0 38.174 17.091 38.174 38.174s-17.091 38.174-38.174 38.174-38.174-17.091-38.174-38.174c0-21.082 17.091-38.174 38.174-38.174zm-66.824 153.726h97.672c2.672-17.663 10.347-33.557 21.471-46.301-13.57-13.05-32.006-21.076-52.32-21.076-35.973 0-66.066 25.159-73.653 58.839-.991 4.4 2.32 8.538 6.83 8.538zm309.439-153.726c21.083 0 38.174 17.091 38.174 38.174s-17.091 38.174-38.174 38.174-38.174-17.091-38.174-38.174c0-21.082 17.091-38.174 38.174-38.174z" fill-rule="evenodd"/></svg>