<svg id="Layer_1" enable-background="new 0 0 512 512" viewBox="0 0 512 512" xmlns="http://www.w3.org/2000/svg"><path d="m200.68 80.1 49.66-49.66c3.15-3.12 8.19-3.12 11.31 0l49.72 49.69c3.12 3.12 3.12 8.19 0 11.31-1.56 1.56-3.6 2.35-5.67 2.35h-28.74v58.59c0 4.42-3.57 7.99-7.99 7.99h-25.91c-4.42 0-7.99-3.57-7.99-7.99v-58.59h-28.77c-4.42 0-7.99-3.57-7.99-7.99-.01-2.24.9-4.25 2.37-5.7zm259.32 34.7c-1.45-1.47-3.46-2.41-5.7-2.41-4.42 0-7.99 3.6-7.99 8.02v28.66l-.82-.03c-46.29-.82-79.4-1.42-82.43 66.39-.26 2.49.71 5.1 2.78 6.86 3.37 2.83 8.42 2.41 11.25-.96 5.05-5.95 8.76-10.97 11.88-15.19 8.56-11.62 11.57-15.68 32.26-15.51 7.48.06 11.99.14 16.5.2 2.64.03 5.3.08 8.59.11v28.89c0 2.04.79 4.08 2.35 5.64 3.12 3.12 8.19 3.12 11.31 0l49.69-49.69c3.12-3.15 3.12-8.19 0-11.31zm-457.66 49.66c-3.12 3.12-3.12 8.16 0 11.31l49.72 49.69c3.12 3.12 8.19 3.12 11.31 0 1.56-1.56 2.35-3.6 2.35-5.64v-28.89c3.29-.03 5.92-.08 8.56-.11 4.54-.06 9.04-.14 16.5-.2 20.72-.17 23.7 3.88 32.29 15.51 3.12 4.22 6.83 9.24 11.88 15.19 2.83 3.37 7.88 3.8 11.23.96 2.1-1.76 3.03-4.37 2.81-6.86-3.03-67.8-36.17-67.21-82.43-66.39l-.82.03v-28.66c0-4.42-3.6-8.02-8.02-8.02-2.21 0-4.22.94-5.7 2.41zm253.67 129.35 143.43-42.29-137.25-51.96c-4.14-1.56-8.22-1.56-12.36 0l-137.28 51.96zm155.43-29.28c-.37.17-.77.31-1.16.43l-146.27 43.14v175.8l135.27-39.88c7.54-2.24 12.53-8.9 12.53-16.78v-158.97c0-1.31-.15-2.55-.37-3.74zm-163.42 43.56-146.27-43.14c-.4-.11-.79-.26-1.16-.43-.26 1.19-.37 2.44-.37 3.74v158.97c0 7.88 4.99 14.54 12.53 16.78l135.27 39.88z"/></svg>