<?xml version="1.0" encoding="iso-8859-1"?>
<!-- Generator: Adobe Illustrator 19.0.0, SVG Export Plug-In . SVG Version: 6.00 Build 0)  -->
<svg version="1.1" id="Capa_1" xmlns="http://www.w3.org/2000/svg" xmlns:xlink="http://www.w3.org/1999/xlink" x="0px" y="0px"
	 viewBox="0 0 512 512" style="enable-background:new 0 0 512 512;" xml:space="preserve">
<g>
	<g>
		<polygon points="356.488,211 271,211 271,93.109 155.512,301 241,301 241,418.891 		"/>
	</g>
</g>
<g>
	<g>
		<path d="M121.875,435.753l-5.654-92.49l-20.874,21.255C77.399,334.506,60,305.669,60,255.753c0-32.574,8.969-63.45,25.259-90.969
			l-45.826,8.983l2.151-51.846C14.991,161.358,0,207.728,0,255.753c0,58.865,18.519,101.136,48.882,145.811l-21.68,17.944
			L121.875,435.753z"/>
	</g>
</g>
<g>
	<g>
		<path d="M379.456,34.746C342.263,12.252,300.22,0,256,0C192.856,0,144.762,22.218,98.559,58.462L76,39.478l-4.014,96.782
			l98.452-19.307l-26.001-19.805C174.45,78.98,203.148,60.439,255.78,60.439c27.341,0,53.595,6.204,77.435,17.461l-9.76-43.154
			H379.456z"/>
	</g>
</g>
<g>
	<g>
		<path d="M443.621,87.312L469.124,65.5H362l21.357,94.438l24.214-23.73c21.736,30,44.429,62.974,44.429,119.544
			c0,23.934-4.869,47.349-13.975,69.152l28.945-10.763l5.912,72.603C498.395,347.813,512,303.01,512,255.753
			C512,185.984,485.898,136.103,443.621,87.312z"/>
	</g>
</g>
<g>
	<g>
		<path d="M439.281,357.312L346,392l27.378,18.267c-30.002,19.587-60.106,40.767-116.616,40.767
			c-38.575,0-74.967-11.874-104.995-33.034l3.364,54.977l-40.25-6.907C155.675,495.83,204.644,512,256,512
			c69.238,0,120.705-26.318,167.886-68.086l23.833,16.992L439.281,357.312z"/>
	</g>
</g>
<g>
</g>
<g>
</g>
<g>
</g>
<g>
</g>
<g>
</g>
<g>
</g>
<g>
</g>
<g>
</g>
<g>
</g>
<g>
</g>
<g>
</g>
<g>
</g>
<g>
</g>
<g>
</g>
<g>
</g>
</svg>
