<svg id="Layer_1" enable-background="new 0 0 100 100" viewBox="0 0 100 100" xmlns="http://www.w3.org/2000/svg"><path d="m96.7582016 47.6262283c-12.4622574-16.2207146-29.0786057-25.1223278-46.684021-25.1223278s-34.2217598 8.9016132-46.684021 25.1223278c-1.1868818 1.384697-1.1868818 3.3628387 0 4.7475319 12.4622583 16.2207222 29.0786037 25.1223412 46.684021 25.1223412s34.2217636-8.901619 46.684021-24.9245224c.9890671-1.5825119.9890671-3.5606537 0-4.9453507zm-46.684021 21.9573212c-14.2425842 0-27.8917217-6.9234734-38.3758469-19.5835495 10.6819382-12.6600761 24.1332607-19.5835495 38.3758469-19.5835495s27.8917236 6.9234734 38.3758545 19.5835495c-10.4841309 12.6600723-24.1332703 19.5835495-38.3758545 19.5835495z"/><path d="m50.0700684 34.5700684c-4.8500977 0-9.2000732 2.2598877-12.0300293 5.7799072.4699707-.1900635.9899902-.2999268 1.5400391-.2999268 2.1699219 0 4.1499023 1.7799072 4.1499023 4.1499023-.1999512 2.3800049-1.9799805 4.1600342-4.1499023 4.1600342-1.9400635 0-3.7200928-1.4100342-4.0900879-3.4000244-.5500489 1.5800782-.8499757 3.2700196-.8499757 5.0400391 0 8.5100098 6.9300537 15.4299316 15.4300537 15.4299316 8.5100098 0 15.4299317-6.9199218 15.4299317-15.4299316s-6.9199219-15.4299316-15.4299316-15.4299316z"/></svg>