<svg id="Layer_1" enable-background="new 0 0 100 100" viewBox="0 0 100 100" xmlns="http://www.w3.org/2000/svg"><path d="m48.0818253 2.9543037-44.2189105 23.0180664c-1.8172154 1.0095634-1.8172154 3.8363419 0 4.8459072l44.2189102 23.0180645c1.2114792.6057358 2.6248665.6057358 3.8363457 0l44.218914-23.0180645c1.817215-1.0095654 1.817215-3.8363438 0-4.8459072l-44.4208295-23.0180664c-1.2114754-.6057384-2.4229508-.6057384-3.6344299 0z"/><path d="m95.9351654 47.3751335-8.2784195-4.2401733c-.4038315-.2019119-1.0095673-.2019119-1.615303 0l-31.7003174 16.5568542c-1.4133911.8076477-3.0286942 1.0095634-4.4420853 1.0095634-1.6152992 0-3.0286903-.4038277-4.4420815-1.0095634l-31.7003145-16.5568542c-.4038258-.2019119-1.0095644-.2019119-1.615303 0l-8.2784271 4.2401733c-1.8172154 1.0095634-1.8172154 3.8363419 0 4.8459053l44.2189064 23.0180664c1.2114792.6057358 2.6248665.6057358 3.8363457 0l44.2189102-23.0180664c1.6153116-1.0095634 1.6153116-3.8363418-.201911-4.8459053z"/><path d="m95.9351654 69.1817169-8.2784195-4.2401733c-.4038315-.2019119-1.0095673-.2019119-1.615303 0l-31.7003174 16.5568542c-1.4133911.8076553-3.0286942 1.0095673-4.4420853 1.0095673-1.6152992 0-3.0286903-.4038315-4.4420815-1.0095673l-31.7003145-16.5568542c-.4038258-.2019119-1.0095644-.2019119-1.615303 0l-8.2784271 4.2401733c-1.8172154 1.0095673-1.8172154 3.8363495 0 4.8459091l44.2189064 23.018074c1.2114792.6057358 2.6248665.6057358 3.8363457 0l44.2189102-23.018074c1.6153116-1.0095596 1.6153116-3.8363418-.201911-4.8459091z"/></svg>