<svg id="glipy" height="512" viewBox="0 0 64 64" width="512" xmlns="http://www.w3.org/2000/svg"><path d="m57.02875 49.25964a5.1134 5.1134 0 0 0 -2.00287-.41058h-46.0658c-6.572.17694-6.65478 9.79218.00013 10.01428h46.06567a5.02216 5.02216 0 0 0 2.00287-9.6037zm-44.33338 5.598a1.0017 1.0017 0 0 1 -.00995-2.0028 1.0017 1.0017 0 0 1 .00995 2.00276zm7.73108 0a1.00141 1.00141 0 0 1 .00006-2.0028 1.00141 1.00141 0 0 1 -.00006 2.00276zm7.721 0a1.0017 1.0017 0 0 1 -.00989-2.0028 1.0017 1.0017 0 0 1 .0099 2.00276zm7.73108 0a1.00141 1.00141 0 0 1 .00006-2.0028 1.00141 1.00141 0 0 1 -.00005 2.00276zm7.72107 0a1.0017 1.0017 0 0 1 -.01-2.0028 1.0017 1.0017 0 0 1 .01001 2.00276zm7.731 0a1.0015 1.0015 0 0 1 -.01-2.0028 1.0015 1.0015 0 0 1 .01003 2.00276z"/><path d="m43.00873 37.83331v9.01288h12.01715a7.123 7.123 0 0 1 2.00287.29047v-9.30335a.998.998 0 0 0 -1.00147-1.00146h-12.01715a.998.998 0 0 0 -1.0014 1.00146z"/><path d="m20.97723 46.84619v-9.01288a.998.998 0 0 0 -1.00146-1.00146h-12.01715a.998.998 0 0 0 -1.00141 1.00146v9.30335a7.17561 7.17561 0 0 1 2.00287-.29047z"/><path d="m38.00153 36.83185h-12.01715a.998.998 0 0 0 -1.00138 1.00146v9.01288h14.02v-9.01288a.998.998 0 0 0 -1.00147-1.00146z"/><path d="m18.47363 22.77179c1.15839-.08991 2.34186.11975 2.824 1.31195.50976 1.18182-.18683 2.18347-1.0716 2.924a1.00961 1.00961 0 0 0 .00007 1.42218l2.99426 2.99426a1.0094 1.0094 0 0 0 1.42206 0l.60089-.6109a2.14311 2.14311 0 0 1 3.63513 1.50226l.00006.86115a.99792.99792 0 0 0 1.0014 1.0014h4.226a.998.998 0 0 0 1.00146-1.0014v-.86121a2.1431 2.1431 0 0 1 3.63519-1.50214l.6009.61084a1.00931 1.00931 0 0 0 1.422 0l2.99427-2.99426a1.00949 1.00949 0 0 0 0-1.42212l-.61084-.60083a2.14314 2.14314 0 0 1 1.50219-3.63519h.86115a1.00438 1.00438 0 0 0 1.00146-1.0014v-4.226a1.0044 1.0044 0 0 0 -1.00146-1.00146c-2.89429.38788-4.06818-2.4917-1.75238-4.23609a1.02668 1.02668 0 0 0 -.00012-1.422l-2.99422-2.99427a1.00933 1.00933 0 0 0 -1.422 0c-1.76313 2.33277-4.62464 1.11658-4.236-1.75262a.99818.99818 0 0 0 -1.0015-1.00134h-4.226a.998.998 0 0 0 -1.0014 1.00146c.09 1.15845-.11987 2.34186-1.31195 2.824-1.18121.50988-2.1839-.18695-2.92407-1.07154a1.00954 1.00954 0 0 0 -1.42212.00006l-2.99426 2.99427c-.712.7752.00628 1.49279.611 2.02282a2.1432 2.1432 0 0 1 -1.50232 3.6352l-.86115.00006a1.00434 1.00434 0 0 0 -1.0014 1.00146v4.226a1.00433 1.00433 0 0 0 1.0013 1.0014zm13.51947-9.123c7.941.25025 7.93921 11.768-.00012 12.01715-7.94116-.25029-7.93933-11.76805.00012-12.01714z"/></svg>