<svg fill="none" height="512" viewBox="0 0 24 24" width="512" xmlns="http://www.w3.org/2000/svg"><path clip-rule="evenodd" d="m3.46447 3.46447c-1.46447 1.46446-1.46447 3.82148-1.46447 8.53553 0 4.714 0 7.0711 1.46447 8.5355 1.46446 1.4645 3.82148 1.4645 8.53553 1.4645 4.714 0 7.0711 0 8.5355-1.4645 1.4645-1.4644 1.4645-3.8215 1.4645-8.5355 0-4.71405 0-7.07107-1.4645-8.53553-1.4644-1.46447-3.8215-1.46447-8.5355-1.46447-4.71405 0-7.07107 0-8.53553 1.46447zm9.78553 3.53553c0 .41421.3358.75.75.75h1.1893l-2.2196 2.21967c-.2929.29293-.2929.76773 0 1.06063s.7677.2929 1.0606 0l2.2197-2.21964v1.18934c0 .4142.3358.75.75.75s.75-.3358.75-.75v-3c0-.41421-.3358-.75-.75-.75h-3c-.4142 0-.75.33579-.75.75zm-2.2197 7.0303c.2929-.2929.2929-.7677 0-1.0606s-.7677-.2929-1.06063 0l-2.21967 2.2196v-1.1893c0-.4142-.33579-.75-.75-.75s-.75.3358-.75.75v3c0 .4142.33579.75.75.75h3c.4142 0 .75-.3358.75-.75s-.3358-.75-.75-.75h-1.18934z" fill="rgb(0,0,0)" fill-rule="evenodd"/></svg>