<svg id="_16" height="512" viewBox="0 0 32 32" width="512" xmlns="http://www.w3.org/2000/svg" data-name="16"><circle cx="4" cy="4" r="4"/><circle cx="16" cy="11" r="4"/><circle cx="28" cy="17" r="4"/><circle cx="4" cy="16" r="4"/><circle cx="16" cy="23" r="4"/><circle cx="4" cy="28" r="4"/><path d="m13.4092 22.4902c-.1714 0-.3447-.0439-.5029-.1362l-6.8203-3.9805c-.4771-.2783-.6382-.8906-.3599-1.3677.2783-.4785.8906-.6382 1.3677-.3599l6.8203 3.9805c.4771.2783.6382.8906.3599 1.3677-.186.3188-.521.4961-.8647.4961z"/><path d="m6.7705 27.8506c-.3911 0-.7627-.2314-.9233-.6147-.2129-.5098.0278-1.0952.5371-1.3086l6.46-2.7002c.5107-.2119 1.0952.0283 1.3086.5371.2129.5098-.0278 1.0952-.5371 1.3086l-6.46 2.7002c-.126.0522-.2568.0776-.3853.0776z"/><path d="m6.7705 15.8506c-.3911 0-.7627-.2314-.9233-.6147-.2129-.5098.0278-1.0952.5371-1.3086l6.46-2.7002c.5107-.2104 1.0952.0283 1.3086.5371.2129.5098-.0278 1.0952-.5371 1.3086l-6.46 2.7002c-.126.0522-.2568.0776-.3853.0776z"/><path d="m13.4092 10.4902c-.1714 0-.3447-.0439-.5029-.1362l-6.8203-3.9805c-.4771-.2783-.6382-.8906-.3599-1.3677.2783-.478.8906-.6372 1.3677-.3599l6.8203 3.9805c.4771.2783.6382.8906.3599 1.3677-.186.3188-.521.4961-.8647.4961z"/><path d="m25.2393 16.8198c-.1558 0-.3135-.0361-.4614-.1133l-6.5801-3.4297c-.4897-.2554-.6797-.8594-.4243-1.3491.2549-.4893.8594-.6792 1.3491-.4243l6.5801 3.4297c.4897.2554.6797.8594.4243 1.3491-.1782.3418-.5269.5376-.8877.5376z"/><path d="m18.7007 22.71c-.3726 0-.7305-.209-.9023-.5679-.2388-.498-.0283-1.0952.4697-1.334l6.6997-3.21c.4966-.2383 1.0947-.0293 1.334.4697.2388.498.0283 1.0952-.4697 1.334l-6.6997 3.21c-.1392.0669-.2866.0981-.4316.0981z"/></svg>