<svg id="Layer_1" viewBox="0 0 512 512" xmlns="http://www.w3.org/2000/svg" data-name="Layer 1"><path d="m277.029 8.462c86.916 7.298 161.054 59.423 199.3 133.174l-137.195 56.832c-14.387-20.91-36.458-36.101-62.104-41.552v-148.454zm215.324 171.866c7.566 23.74 11.646 48.998 11.646 75.24 0 60.913-21.982 116.673-58.441 159.833l-104.967-104.967c10.276-15.787 16.263-34.641 16.263-54.866 0-6.285-.596-12.451-1.698-18.408l137.195-56.832zm-76.491 264.799c-43.16 36.429-98.95 58.411-159.863 58.411-136.957 0-248-111.013-248-247.97.001-129.898 99.874-236.443 226.972-247.106v148.454c-45.603 9.651-79.827 50.16-79.827 98.652 0 55.67 45.156 100.826 100.856 100.826 20.255 0 39.08-5.957 54.896-16.233l104.967 104.967zm-123.229-167.816c0-14.469-7.119-22.197-13.09-26.131-6.524-4.298-14.254-5.923-21.075-7.356-.003 0-.006 0-.009-.001-14.539-3.064-15.092-4.488-15.092-10.029 0-5.298 5.785-9.774 12.633-9.774 4.754 0 9.076 2.075 11.277 5.416 3.647 5.534 11.09 7.065 16.623 3.417 5.534-3.647 7.063-11.089 3.417-16.623-4.45-6.753-11.373-11.768-19.317-14.319v-3.264c0-6.627-5.373-12-12-12s-12 5.373-12 12v3.245c-14.322 4.592-24.633 17.155-24.633 31.903 0 14.477 7.119 22.211 13.09 26.15 6.521 4.301 14.242 5.928 21.069 7.366s.004.001.006.001c14.592 3.066 15.101 4.366 15.101 10 0 5.298-5.785 9.774-12.633 9.774-4.755 0-9.076-2.075-11.277-5.416-3.646-5.533-11.089-7.063-16.623-3.417-5.534 3.647-7.063 11.089-3.417 16.623 4.45 6.753 11.373 11.769 19.317 14.319v3.294c0 6.627 5.373 12 12 12s12-5.373 12-12v-3.274c14.322-4.592 24.633-17.155 24.633-31.903z"/></svg>