<svg clip-rule="evenodd" fill-rule="evenodd" height="512" stroke-linejoin="round" stroke-miterlimit="2" viewBox="0 0 24 24" width="512" xmlns="http://www.w3.org/2000/svg"><g id="Icon"><path d="m15.479 22.75h-11.479c-.729 0-1.429-.29-1.945-.805-.515-.516-.805-1.216-.805-1.945v-16c0-.729.29-1.429.805-1.945.516-.515 1.216-.805 1.945-.805h8.586c.464 0 .909.184 1.237.513l4.414 4.414c.329.328.513.773.513 1.237v4.151c-.687-.101-1.386-.084-2.068.05-.575.112-1.055.505-1.28 1.046l-.17.41c-.224-.029-.441-.057-.441-.057-.581-.076-1.161.143-1.546.585-.521.598-.922 1.291-1.179 2.042-.19.554-.09 1.166.266 1.631l.271.353c-.137.179-.271.353-.271.353-.356.465-.456 1.077-.266 1.631.257.751.658 1.444 1.179 2.042.385.442.965.661 1.546.585l.441-.057c.086.208.17.41.17.41.023.055.049.109.077.161zm-9.979-8h4.5c.414 0 .75-.336.75-.75s-.336-.75-.75-.75h-4.5c-.414 0-.75.336-.75.75s.336.75.75.75zm7-11.75v3.5c0 .552.448 1 1 1h3.5zm-7 8.25h8c.414 0 .75-.336.75-.75s-.336-.75-.75-.75h-8c-.414 0-.75.336-.75.75s.336.75.75.75zm0 7h4.5c.414 0 .75-.336.75-.75s-.336-.75-.75-.75h-4.5c-.414 0-.75.336-.75.75s.336.75.75.75z"/><path d="m19.396 13.044s.355.855.354.855c.135.068.266.144.393.226l.918-.12c.248-.032.497.062.662.251.436.5.771 1.081.987 1.709.081.237.038.5-.115.699 0 0-.562.735-.562.734.008.151.008.303 0 .453l.562.735c.153.199.196.462.115.699-.216.628-.551 1.209-.987 1.709-.165.189-.414.283-.662.251 0 0-.918-.12-.917-.121-.127.083-.259.159-.393.227l-.355.855c-.096.232-.302.4-.548.448-.652.128-1.322.128-1.974 0-.246-.048-.452-.216-.548-.448 0 0-.355-.855-.354-.855-.135-.068-.267-.144-.393-.226l-.918.12c-.249.032-.497-.062-.662-.251-.437-.5-.772-1.081-.987-1.709-.081-.237-.038-.5.114-.699 0 0 .563-.735.563-.734-.008-.151-.008-.303 0-.453l-.563-.735c-.152-.199-.195-.462-.114-.699.215-.628.55-1.209.987-1.709.165-.189.413-.283.662-.251 0 0 .918.12.917.121.127-.083.258-.159.393-.227l.355-.855c.096-.232.302-.4.548-.448.652-.128 1.322-.128 1.974 0 .246.048.452.216.548.448zm-1.535 3.081c-.828 0-1.5.672-1.5 1.5s.672 1.5 1.5 1.5 1.5-.672 1.5-1.5-.672-1.5-1.5-1.5z"/></g></svg>