<svg id="Capa_1" enable-background="new 0 0 512 512" height="512" viewBox="0 0 512 512" width="512" xmlns="http://www.w3.org/2000/svg"><g><path d="m226.734 264.053 47.678-47.678c-10.722-6.844-23.436-10.829-37.072-10.829-38.109 0-69.113 31.004-69.113 69.113s31.004 69.113 69.113 69.113 69.113-31.004 69.113-69.113c0-13.635-3.985-26.35-10.829-37.072l-47.678 47.678z"/><path d="m474.682 274.659c0-40.762-10.413-80.624-30.183-115.901l-59.098 8.098c22.101 30.271 35.167 67.537 35.167 107.803 0 101.032-82.195 183.228-183.228 183.228s-183.227-82.196-183.227-183.228 82.196-183.227 183.228-183.227c40.266 0 77.532 13.066 107.803 35.167l8.098-59.098c-35.277-19.77-75.139-30.183-115.901-30.183-63.396 0-122.998 24.688-167.825 69.516-44.828 44.827-69.516 104.429-69.516 167.825s24.688 122.998 69.516 167.825c44.827 44.829 104.428 69.516 167.825 69.516s122.998-24.688 167.825-69.516c44.828-44.827 69.516-104.428 69.516-167.825z"/><path d="m237.341 121.432c-84.49 0-153.228 68.737-153.228 153.228s68.737 153.228 153.228 153.228 153.228-68.737 153.228-153.228c0-36.855-13.082-70.71-34.842-97.173l-38.533 38.533c12.1 16.432 19.261 36.714 19.261 58.64 0 54.651-44.462 99.113-99.113 99.113s-99.113-44.462-99.113-99.113 44.462-99.113 99.113-99.113c21.926 0 42.207 7.161 58.64 19.261l38.533-38.533c-26.464-21.762-60.319-34.843-97.174-34.843z"/><path d="m450.307 0-66.671 66.671-9.797 71.49 71.49-9.797 66.671-66.671-45.002-16.691z"/></g></svg>