<svg id="Capa_1" enable-background="new 0 0 512 512" height="512" viewBox="0 0 512 512" width="512" xmlns="http://www.w3.org/2000/svg"><g><g><path d="m171.499 111.395c3.202-11.292 4.129-23.279 2.677-34.949-2.416-19.435-11.018-37.032-24.875-50.889-3.62-3.62-7.597-6.952-11.82-9.9-14.665-10.239-31.924-15.654-49.908-15.657-5.145-.001-10.323.453-15.396 1.351-5.34.946-9.626 4.563-11.462 9.673-1.844 5.129-.839 10.667 2.688 14.814l27.974 32.895-32.643 32.643-32.894-27.974c-4.149-3.528-9.688-4.532-14.817-2.687-5.111 1.839-8.727 6.125-9.672 11.462-.898 5.068-1.352 10.248-1.351 15.395.004 17.985 5.418 35.244 15.657 49.909 2.945 4.219 6.276 8.195 9.9 11.82 13.857 13.857 31.454 22.459 50.889 24.875 11.67 1.451 23.656.525 34.949-2.677l66.823 66.823 60.104-60.104z"/><path d="m340.501 400.605c-3.202 11.292-4.129 23.279-2.677 34.949 2.416 19.435 11.018 37.032 24.875 50.889 3.625 3.625 7.601 6.955 11.82 9.9 14.666 10.239 31.924 15.654 49.909 15.657 5.147.001 10.327-.453 15.395-1.351 5.337-.946 9.624-4.561 11.462-9.672 1.846-5.129.841-10.667-2.687-14.816l-27.974-32.894 32.643-32.643 32.895 27.974c4.147 3.527 9.686 4.533 14.814 2.688 5.11-1.837 8.728-6.123 9.673-11.463.898-5.072 1.353-10.251 1.351-15.395-.003-17.985-5.418-35.243-15.657-49.909-2.948-4.223-6.28-8.199-9.9-11.82-13.857-13.857-31.454-22.459-50.889-24.875-11.67-1.451-23.656-.525-34.949 2.677l-66.823-66.823-60.104 60.104z"/></g><g><g><path d="m507.582 38.336-33.918-33.918c-5.01-5.01-12.684-5.852-18.66-2.048l-70.007 44.549c-3.431 2.184-5.857 5.723-6.655 9.713l-5.998 29.99-183.32 183.32 53.033 53.033 183.32-183.32 29.991-5.998c3.989-.798 7.528-3.224 9.712-6.656l44.548-70.004c3.806-5.977 2.965-13.651-2.046-18.661z"/></g><path d="m250.897 374.24-113.137-113.137c-5.858-5.858-15.355-5.858-21.213 0s-5.858 15.355 0 21.213l3.536 3.536-98.15 98.15c-29.243 29.243-29.243 76.823 0 106.066s76.823 29.243 106.066 0l98.15-98.15 3.536 3.536c5.858 5.858 15.355 5.858 21.213 0 5.856-5.858 5.856-15.356-.001-21.214zm-99.994 8.071-76.331 76.331c-5.858 5.858-15.355 5.858-21.213 0s-5.858-15.355 0-21.213l76.331-76.331c5.858-5.858 15.355-5.858 21.213 0 5.857 5.857 5.857 15.355 0 21.213z"/></g></g></svg>