<svg id="Glyph" enable-background="new 0 0 32 32" height="512" viewBox="0 0 32 32" width="512" xmlns="http://www.w3.org/2000/svg"><path d="m12.491 23.29-2.555 1.245-1.776-6.559 2.498-1.249c.94-.47 1.976-.715 3.027-.715h6.181c.818 0 1.529.684 1.529 1.529 0 .773-.625 1.459-1.4 1.522l-2.065.171c-1.318.111-1.154 2.102.165 1.994l2.064-.171c1.599-.132 2.891-1.348 3.175-2.882l3.893-1.068c.701-.192 1.431.187 1.677.871.242.672-.065 1.419-.71 1.726l-8.298 4.493c-.914.495-1.985.615-2.985.334z"/><path d="m8.071 26.788-6.071 3.212v-10.5l3.478-1.56c.28-.126.607.029.687.325l2.154 7.95c.062.226-.042.464-.248.573z"/><path d="m20.117 1.448-.842 1.148c-.067.091-.178.133-.29.112-.662-.124-1.308-.124-1.971 0-.111.021-.222-.021-.289-.112l-.842-1.148c-.09-.123-.259-.159-.392-.082l-1.982 1.144c-.133.077-.186.241-.125.381l.575 1.307c.046.104.026.221-.048.307-.427.498-.766 1.072-.99 1.702-.038.106-.129.183-.241.195l-1.413.155c-.152.017-.267.145-.267.299v2.289c0 .153.115.282.267.298l1.413.155c.112.012.204.089.241.195.223.63.563 1.205.99 1.702.074.086.094.204.048.307l-.575 1.307c-.062.14-.008.304.125.381l1.982 1.145c.133.077.301.041.392-.082l.842-1.148c.067-.091.178-.133.289-.112.642.121 1.289.128 1.971 0 .111-.021.222.021.289.112l.842 1.148c.09.123.259.159.392.082l1.982-1.144c.133-.077.186-.241.125-.381l-.575-1.307c-.046-.104-.026-.221.048-.307.427-.498.766-1.072.99-1.702.038-.106.129-.183.241-.195l1.413-.155c.153-.018.268-.146.268-.3v-2.289c0-.153-.115-.282-.267-.298l-1.413-.154c-.112-.012-.204-.089-.241-.195-.223-.63-.563-1.205-.99-1.702-.074-.086-.094-.204-.048-.307l.575-1.307c.062-.14.008-.304-.125-.381l-1.982-1.145c-.133-.077-.302-.041-.392.082zm.048 7.802c-.69 1.196-2.219 1.605-3.415.915s-1.605-2.219-.915-3.415 2.219-1.605 3.415-.915 1.605 2.219.915 3.415z"/></svg>